<svg width="24" height="24" viewBox="0 0 24 24" fill="none" xmlns="http://www.w3.org/2000/svg">
<path fill-rule="evenodd" clip-rule="evenodd" d="M19.0989 18.335C18.6013 18.8326 17.7007 18.7386 17.0872 18.1252L6.87475 7.91272C6.26128 7.29925 6.16732 6.39857 6.66489 5.901C7.16246 5.40342 8.06314 5.49738 8.67662 6.11085L18.889 16.3233C19.5025 16.9368 19.5965 17.8374 19.0989 18.335Z" fill="white"/>
<path fill-rule="evenodd" clip-rule="evenodd" d="M6.23096 18.5331C5.73339 18.0355 5.82735 17.1348 6.44082 16.5214L16.6533 6.30893C17.2667 5.69545 18.1674 5.60149 18.665 6.09907C19.1626 6.59664 19.0686 7.49732 18.4551 8.11079L8.24269 18.3232C7.62922 18.9367 6.72854 19.0307 6.23096 18.5331Z" fill="white"/>
</svg>
