<svg width="24" height="24" viewBox="0 0 24 24" fill="none" xmlns="http://www.w3.org/2000/svg">
<g clip-path="url(#clip0_48_485)">
<path fill-rule="evenodd" clip-rule="evenodd" d="M10.045 10.7567C10.1138 10.6044 10.2544 10.5 10.4167 10.5H12.75C12.9801 10.5 13.1667 10.7099 13.1667 10.9688V15.9429H13.5833C13.8135 15.9429 14 16.1527 14 16.4116V17.5312C14 17.7901 13.8135 18 13.5833 18H10.4167C10.1865 18 10 17.7901 10 17.5312V16.4116C10 16.1527 10.1865 15.9429 10.4167 15.9429H10.8333V12.5571H10.4167C10.1865 12.5571 10 12.3473 10 12.0884V10.9688C10 10.8924 10.0162 10.8204 10.045 10.7567ZM8.78857 9.1389C8.59992 8.67601 8.5 8.17916 8.5 7.6875C8.5 5.8789 9.85205 4 12 4C14.1479 4 15.5 5.87888 15.5 7.6875C15.5 8.42155 15.2773 9.16718 14.869 9.79408C15.065 10.1678 15.1667 10.5799 15.1667 10.9688V14.5401C15.7104 15.0329 16 15.7553 16 16.4116V17.5312C16 18.6667 15.133 20 13.5833 20H10.4167C8.86703 20 8 18.6667 8 17.5312V16.4116C8 15.7553 8.28965 15.0329 8.83333 14.5401V13.9599C8.28965 13.4671 8 12.7447 8 12.0884V10.9688C8 10.3307 8.27376 9.6302 8.78857 9.1389ZM10.685 8.5C10.9402 9.02158 11.4334 9.375 12 9.375C12.2732 9.375 12.5294 9.29283 12.75 9.14925C12.9701 9.00598 13.1549 8.80158 13.286 8.55667C13.4219 8.30281 13.5 8.00542 13.5 7.6875C13.5 6.75551 12.8284 6 12 6C11.1716 6 10.5 6.75551 10.5 7.6875C10.5 7.98205 10.5671 8.25898 10.685 8.5Z" fill="white"/>
</g>
<defs>
<clipPath id="clip0_48_485">
<rect width="24" height="24" fill="white"/>
</clipPath>
</defs>
</svg>
