<svg width="24" height="24" viewBox="0 0 24 24" fill="none" xmlns="http://www.w3.org/2000/svg">
<path d="M13.7624 10.2365C13.5729 10.0458 13.3627 9.87681 13.1359 9.73256C12.535 9.34778 11.8364 9.14332 11.1229 9.14332C10.1325 9.14147 9.18242 9.53497 8.48335 10.2365L5.09196 13.6305C4.39409 14.3297 4.00185 15.2771 4.00122 16.265C3.99991 18.3265 5.66998 19.9987 7.73149 20.0001C8.72031 20.0035 9.66955 19.6119 10.3684 18.9122L13.1679 16.1127C13.2187 16.0623 13.2471 15.9935 13.2467 15.9219C13.2459 15.7746 13.1258 15.656 12.9785 15.6568H12.8719C12.287 15.6589 11.7073 15.5466 11.1656 15.3262C11.0657 15.2851 10.951 15.3083 10.875 15.3849L8.86197 17.4005C8.2369 18.0256 7.22346 18.0256 6.59838 17.4005C5.9733 16.7754 5.9733 15.762 6.59838 15.1369L10.0031 11.7349C10.6277 11.1111 11.6395 11.1111 12.2641 11.7349C12.685 12.131 13.3415 12.131 13.7624 11.7349C13.9435 11.5536 14.0533 11.3132 14.0717 11.0576C14.0912 10.7522 13.9786 10.4531 13.7624 10.2365Z" fill="white"/>
<path d="M18.9055 5.09333C17.4477 3.63556 15.0842 3.63556 13.6265 5.09333L10.8296 7.88748C10.7528 7.96465 10.7307 8.08073 10.7736 8.18077C10.8161 8.2811 10.9153 8.34549 11.0242 8.3434H11.1229C11.7071 8.34234 12.2858 8.45554 12.8266 8.67668C12.9264 8.71777 13.0411 8.69459 13.1172 8.61804L15.1248 6.61305C15.7499 5.98798 16.7633 5.98798 17.3884 6.61305C18.0135 7.23813 18.0135 8.25157 17.3884 8.87665L14.8875 11.3749L14.8662 11.3989L13.9917 12.268C13.3671 12.8918 12.3553 12.8918 11.7307 12.268C11.3098 11.8719 10.6532 11.8719 10.2324 12.268C10.0501 12.4507 9.94022 12.6931 9.92307 12.9506C9.90357 13.256 10.0162 13.5551 10.2324 13.7718C10.541 14.0817 10.902 14.3344 11.2988 14.5183C11.3548 14.5449 11.4108 14.5663 11.4668 14.5903C11.5228 14.6143 11.5814 14.6329 11.6374 14.6543C11.6934 14.6756 11.7521 14.6943 11.808 14.7103L11.9654 14.7529C12.072 14.7796 12.1787 14.8009 12.288 14.8195C12.4196 14.8391 12.5522 14.8516 12.6852 14.8569H12.8719H12.8878L13.0478 14.8382C13.1065 14.8356 13.1678 14.8222 13.2371 14.8222H13.3278L13.5117 14.7956L13.5971 14.7796L13.7517 14.7476H13.781C14.4359 14.5831 15.034 14.244 15.5114 13.7664L18.9054 10.3724C20.3633 8.91461 20.3633 6.5511 18.9055 5.09333Z" fill="white"/>
</svg>
