<svg width="18" height="18" viewBox="0 0 18 18" fill="none" xmlns="http://www.w3.org/2000/svg">
<g clip-path="url(#clip0_453_872)">
<path d="M4.47987 4.7737C4.76689 4.72412 4.95929 4.45139 4.90985 4.16437C4.62901 2.53702 5.88434 1.05469 7.52528 1.05469C9.16129 1.05469 10.4188 2.53001 10.1418 4.15791C10.0931 4.44507 10.2861 4.71739 10.5733 4.76628C10.8605 4.81531 11.1328 4.62195 11.1817 4.33479C11.567 2.069 9.81827 0 7.52528 0C5.23491 0 3.47778 2.06873 3.87054 4.34372C3.92012 4.63156 4.19396 4.82314 4.47987 4.7737Z" fill="white"/>
<path d="M13.1366 8.46026C12.7414 7.68449 11.8 7.37481 11.0272 7.75714C10.668 7.05195 9.84635 6.71879 9.09955 6.97807V3.7485C9.09955 2.88772 8.40783 2.16853 7.55735 2.14518C6.66622 2.11991 5.9278 2.83361 5.9278 3.72666V11.8506L5.30831 11.2019C4.71367 10.5794 3.71804 10.5356 3.08866 11.1045C2.42454 11.7048 2.39144 12.7269 3.00297 13.3694L6.56336 17.1669C7.0598 17.6963 7.76101 18.0001 8.48693 18.0001H12.7811C14.235 18.0001 15.4178 16.8173 15.4178 15.3634V9.87901C15.4178 8.71075 14.1855 7.94129 13.1366 8.46026ZM14.3631 15.3634C14.3631 16.2357 13.6534 16.9454 12.7811 16.9454H8.48693C8.05132 16.9454 7.63068 16.7632 7.33281 16.4454C7.32004 16.4319 3.78025 12.6564 3.76748 12.6429C3.56354 12.4292 3.57329 12.0882 3.79577 11.8869C4.00547 11.6975 4.34179 11.717 4.54545 11.9303L6.07364 13.5306C6.40131 13.8739 6.98235 13.641 6.98235 13.1665V3.72666C6.98235 3.43031 7.22817 3.19108 7.52865 3.19946C7.81333 3.20729 8.04487 3.45352 8.04487 3.7485C8.04487 9.5512 8.03498 6.92094 8.03498 10.0548C8.03498 10.3469 8.27283 10.5849 8.56727 10.5819C8.86129 10.5849 9.09955 10.347 9.09955 10.0548V8.37251C9.14652 8.12944 9.36048 7.94541 9.61701 7.94541C9.90773 7.94541 10.1444 8.18203 10.1444 8.47276V10.0548C10.1444 10.3461 10.3804 10.5821 10.6717 10.5821C10.963 10.5821 11.199 10.3461 11.199 10.0548V9.17588C11.199 8.88516 11.4357 8.64854 11.7264 8.64854C12.0171 8.64854 12.2537 8.88516 12.2537 9.17588V10.0548C12.2537 10.3461 12.4898 10.5821 12.7811 10.5821C13.0723 10.5821 13.3084 10.3461 13.3084 10.0548V9.87901C13.3084 9.58828 13.545 9.35166 13.8358 9.35166C14.1265 9.35166 14.3631 9.58828 14.3631 9.87901V15.3634Z" fill="white"/>
</g>
<defs>
<clipPath id="clip0_453_872">
<rect width="18" height="18" fill="white"/>
</clipPath>
</defs>
</svg>
