<svg width="24" height="24" viewBox="0 0 24 24" fill="none" xmlns="http://www.w3.org/2000/svg">
<path fill-rule="evenodd" clip-rule="evenodd" d="M14.2 11.2C14.2 11.7523 13.7523 12.2 13.2 12.2L9.20001 12.2C8.64773 12.2 8.20001 11.7523 8.20001 11.2C8.20001 10.6477 8.64773 10.2 9.20001 10.2L13.2 10.2C13.7523 10.2 14.2 10.6477 14.2 11.2Z" fill="white"/>
<path fill-rule="evenodd" clip-rule="evenodd" d="M11.2 14.2C10.6477 14.2 10.2 13.7523 10.2 13.2L10.2 9.20001C10.2 8.64773 10.6477 8.20001 11.2 8.20001C11.7523 8.20001 12.2 8.64772 12.2 9.20001L12.2 13.2C12.2 13.7523 11.7523 14.2 11.2 14.2Z" fill="white"/>
<path d="M11.2727 4C7.26266 4 4 7.26266 4 11.2727C4 15.283 7.26266 18.5455 11.2727 18.5455C15.283 18.5455 18.5455 15.283 18.5455 11.2727C18.5455 7.26266 15.283 4 11.2727 4ZM11.2727 16.5714C8.00292 16.5714 5.97403 14.5426 5.97403 11.2727C5.97403 8.00292 8.11682 5.97403 11.2727 5.97403C14.4287 5.97403 16.5714 8.00292 16.5714 11.2727C16.5714 14.5426 14.5426 16.5714 11.2727 16.5714Z" fill="white"/>
<path fill-rule="evenodd" clip-rule="evenodd" d="M16.6398 15.2922C16.2677 14.92 15.6646 14.9199 15.2924 15.2921C14.9201 15.6641 14.92 16.2677 15.2922 16.6398L18.3733 19.7208C18.5592 19.9068 18.8037 20 19.0471 20C19.2903 20 19.5349 19.9067 19.7209 19.7209C20.0931 19.3488 20.093 18.7452 19.7208 18.3731L16.6398 15.2922Z" fill="white"/>
</svg>
