<svg width="18" height="18" viewBox="0 0 18 18" fill="none" xmlns="http://www.w3.org/2000/svg">
<g clip-path="url(#clip0_438_893)">
<path d="M4.47987 4.7737C4.76689 4.72412 4.95929 4.45139 4.90985 4.16437C4.62901 2.53702 5.88434 1.05469 7.52528 1.05469C9.16129 1.05469 10.4188 2.53001 10.1418 4.15791C10.0931 4.44507 10.2861 4.71739 10.5733 4.76628C10.8605 4.81531 11.1328 4.62195 11.1817 4.33479C11.567 2.069 9.81827 0 7.52528 0C5.23491 0 3.47778 2.06873 3.87054 4.34372C3.92012 4.63156 4.19396 4.82314 4.47987 4.7737Z" fill="white"/>
<path fill-rule="evenodd" clip-rule="evenodd" d="M11.0272 7.75714C11.8 7.37481 12.7414 7.68449 13.1366 8.46026C14.1235 7.97198 15.2727 8.62425 15.4052 9.67612C14.8844 9.25053 14.2109 9 13.5 9C13.0613 9 12.6368 9.09541 12.2537 9.26849V9.17588C12.2537 8.88516 12.0171 8.64854 11.7264 8.64854C11.4357 8.64854 11.199 8.88516 11.199 9.17588V10.0548C11.199 10.0597 11.199 10.0646 11.1988 10.0695C11.0798 10.2137 10.9751 10.3698 10.8873 10.5362C10.8215 10.5657 10.7485 10.5821 10.6717 10.5821C10.3804 10.5821 10.1444 10.3461 10.1444 10.0548V8.47276C10.1444 8.18203 9.90773 7.94541 9.61701 7.94541C9.36048 7.94541 9.14652 8.12944 9.09955 8.37251V10.0548C9.09955 10.347 8.86129 10.5849 8.56727 10.5819C8.27283 10.5849 8.03498 10.3469 8.03498 10.0548C8.03498 8.7273 8.03675 8.43409 8.0388 8.09608C8.04158 7.63612 8.04487 7.0932 8.04487 3.7485C8.04487 3.45352 7.81333 3.20729 7.52865 3.19946C7.22817 3.19108 6.98235 3.43031 6.98235 3.72666V13.1665C6.98235 13.641 6.40131 13.8739 6.07364 13.5306L4.54545 11.9303C4.34179 11.717 4.00547 11.6975 3.79577 11.8869C3.57329 12.0882 3.56354 12.4292 3.76748 12.6429C3.77386 12.6496 4.66235 13.5973 5.55066 14.5447C6.43863 15.4918 7.32643 16.4387 7.33281 16.4454C7.63068 16.7632 8.05132 16.9454 8.48693 16.9454H9.10083C9.21306 17.3425 9.41411 17.6995 9.67934 18.0001H8.48693C7.76101 18.0001 7.0598 17.6963 6.56336 17.1669L3.00297 13.3694C2.39144 12.7269 2.42454 11.7048 3.08866 11.1045C3.71804 10.5356 4.71367 10.5794 5.30831 11.2019L5.9278 11.8506V3.72666C5.9278 2.83361 6.66622 2.11991 7.55735 2.14518C8.40783 2.16853 9.09955 2.88772 9.09955 3.7485V6.97807C9.84635 6.71879 10.668 7.05195 11.0272 7.75714Z" fill="white"/>
<path fill-rule="evenodd" clip-rule="evenodd" d="M13.6607 9.74292C12.501 9.74292 11.5286 10.6287 11.5286 11.7533V12.6386C10.6698 12.8908 10.0286 13.6467 10.0286 14.5585V15.9611C10.0286 17.0857 11.001 17.9715 12.1607 17.9715H15.1607C16.3204 17.9715 17.2929 17.0857 17.2929 15.9611V14.5585C17.2929 13.6467 16.6517 12.8908 15.7928 12.6386V11.7533C15.7928 10.6287 14.8204 9.74292 13.6607 9.74292ZM12.7929 11.7533C12.7929 11.3313 13.1659 10.9585 13.6607 10.9585C14.1556 10.9585 14.5286 11.3313 14.5286 11.7533V12.5481H12.7929V11.7533ZM11.2928 14.5585C11.2928 14.1365 11.6659 13.7637 12.1607 13.7637H15.1607C15.6556 13.7637 16.0286 14.1365 16.0286 14.5585V15.9611C16.0286 16.3831 15.6556 16.7559 15.1607 16.7559H12.1607C11.6659 16.7559 11.2928 16.3831 11.2928 15.9611V14.5585Z" fill="white"/>
</g>
<defs>
<clipPath id="clip0_438_893">
<rect width="18" height="18" fill="white"/>
</clipPath>
</defs>
</svg>
