<svg width="24" height="24" viewBox="0 0 24 24" fill="none" xmlns="http://www.w3.org/2000/svg">
<path fill-rule="evenodd" clip-rule="evenodd" d="M8.88926 10.7837L8.88928 10.7837C10.1279 10.7712 11.1541 9.95854 11.5265 8.85886L11.5265 8.85877C11.5452 8.80358 11.5783 8.74778 11.6339 8.69472L11.6341 8.69455C11.7186 8.61377 11.8194 8.57466 11.9435 8.58039L11.9438 8.58041C11.9623 8.58125 12.069 8.60249 12.1913 8.72482C12.3136 8.84713 12.3349 8.95385 12.3357 8.97232L12.3357 8.97239C12.3434 9.13942 12.2507 9.29548 12.1055 9.36854L12.1055 9.36855C10.2717 10.2915 9.11354 12.1441 9.11354 14.2008C9.11354 15.7501 10.3695 17.006 11.9187 17.006H11.9226C13.427 17.006 14.6549 15.8217 14.7246 14.3345C16.7926 13.2474 18.0516 11.0542 17.944 8.71434L17.944 8.71426C17.8751 7.21771 17.2216 5.81787 16.16 4.75624C15.0984 3.69465 13.6985 3.04103 12.2019 2.9722C10.5442 2.89595 8.95668 3.48828 7.75643 4.63451L7.75634 4.6346C7.02983 5.32851 6.49446 6.17774 6.18782 7.11685L6.18781 7.11691C5.58224 8.97173 7.00967 10.8025 8.88926 10.7837ZM8.99959 5.93626C8.48565 6.42714 8.11234 7.02193 7.89892 7.67556C7.68662 8.32581 8.18725 8.99059 8.87125 8.98375C9.30643 8.97939 9.682 8.69373 9.82159 8.28151C9.93451 7.948 10.1274 7.64444 10.3907 7.39295C10.8325 6.97098 11.4131 6.75395 12.0266 6.78231C13.0997 6.83172 14.0844 7.81642 14.1338 8.88962C14.1741 9.76436 13.6955 10.5835 12.9147 10.9764C11.6804 11.5976 10.9135 12.8332 10.9135 14.2008C10.9135 14.756 11.3636 15.206 11.9187 15.206H11.9226C12.4777 15.206 12.9278 14.756 12.9278 14.2008C12.9278 13.5988 13.2698 13.0526 13.8203 12.7756C15.3098 12.0259 16.2226 10.4642 16.1459 8.79704C16.0989 7.77686 15.6519 6.79379 14.8872 6.02903C14.1224 5.26426 13.1394 4.81722 12.1192 4.7703C10.9513 4.71658 9.8432 5.13062 8.99959 5.93626Z" fill="white"/>
<path fill-rule="evenodd" clip-rule="evenodd" d="M11.9206 21.0344C13.471 21.0344 14.7278 19.7776 14.7278 18.2273C14.7278 16.677 13.471 15.4202 11.9206 15.4202C10.3703 15.4202 9.11354 16.677 9.11354 18.2273C9.11354 19.7776 10.3703 21.0344 11.9206 21.0344ZM11.9206 19.2344C12.4769 19.2344 12.9278 18.7835 12.9278 18.2273C12.9278 17.6711 12.4769 17.2202 11.9206 17.2202C11.3644 17.2202 10.9135 17.6711 10.9135 18.2273C10.9135 18.7835 11.3644 19.2344 11.9206 19.2344Z" fill="white"/>
</svg>
