<svg width="24" height="24" viewBox="0 0 24 24" fill="none" xmlns="http://www.w3.org/2000/svg">
<path fill-rule="evenodd" clip-rule="evenodd" d="M8.00001 20C7.44773 20 7.00001 19.5523 7.00001 19L7 4.99999C7 4.44771 7.44771 4 7.99999 4C8.55227 4 8.99999 4.44771 8.99999 4.99999L9 19C9 19.5523 8.55229 20 8.00001 20Z" fill="white"/>
<path fill-rule="evenodd" clip-rule="evenodd" d="M16 20C15.4477 20 15 19.5523 15 19L15 4.99999C15 4.44771 15.4477 4 16 4C16.5523 4 17 4.44771 17 4.99999L17 19C17 19.5523 16.5523 20 16 20Z" fill="white"/>
</svg>
