<svg width="24" height="24" viewBox="0 0 24 24" fill="none" xmlns="http://www.w3.org/2000/svg">
<path d="M11.904 13.9625C11.4694 13.9625 11.0517 13.7943 10.7383 13.4932C10.425 13.1921 10.2403 12.7814 10.223 12.3472L10.0013 6.74844C9.9924 6.52213 10.0293 6.29635 10.1098 6.08465C10.1902 5.87294 10.3126 5.67966 10.4696 5.51639C10.6265 5.35312 10.8148 5.22322 11.0232 5.13449C11.2316 5.04576 11.4558 5.00001 11.6822 5H12.1257C12.3522 5.00001 12.5763 5.04576 12.7847 5.13449C12.9931 5.22322 13.1814 5.35312 13.3383 5.51639C13.4953 5.67966 13.6177 5.87294 13.6982 6.08465C13.7786 6.29635 13.8155 6.52213 13.8066 6.74844L13.5849 12.3472C13.5676 12.7814 13.3829 13.1921 13.0696 13.4932C12.7562 13.7943 12.3385 13.9625 11.904 13.9625Z" fill="white"/>
<path d="M13.5835 16.4455C13.5835 15.5179 12.8315 14.7659 11.904 14.7659C10.9764 14.7659 10.2244 15.5179 10.2244 16.4455C10.2244 17.373 10.9764 18.125 11.904 18.125C12.8315 18.125 13.5835 17.373 13.5835 16.4455Z" fill="white"/>
</svg>
